<svg width="49" height="48" viewBox="0 0 49 48" fill="#85ADD8" xmlns="http://www.w3.org/2000/svg">
<path d="M24 6C24.2579 6 24.5146 6.00543 24.7699 6.01617L15.6841 21.7501L10.4842 12.7454C10.4117 12.6199 10.3187 12.5136 10.2119 12.4284C13.5138 8.49814 18.4651 6 24 6Z" fill="inherit"/>
<path d="M8.80787 14.3418C7.03004 17.1325 6 20.4459 6 24C6 26.1614 6.38097 28.2339 7.07941 30.1539C7.2077 30.103 7.34757 30.075 7.49397 30.075H17.8932L14.7253 24.5891C14.715 24.5722 14.7051 24.5551 14.6956 24.5377L8.80787 14.3418Z" fill="inherit"/>
<path d="M20.8706 41.7289C15.2812 40.7491 10.5793 37.1905 8.0367 32.325H19.8259C19.8373 32.3252 19.8487 32.3252 19.8601 32.325H26.2095L21.0097 41.3294C20.9363 41.4565 20.8906 41.592 20.8706 41.7289Z" fill="inherit"/>
<path d="M23.2301 41.9838C23.4854 41.9946 23.742 42 24 42C29.5349 42 34.4862 39.5019 37.7881 35.5716C37.6813 35.4864 37.5882 35.3801 37.5157 35.2546L32.3158 26.2499L23.2301 41.9838Z" fill="inherit"/>
<path d="M33.3048 23.4632L39.1921 33.6582C40.97 30.8676 42 27.5541 42 24C42 21.8386 41.619 19.7661 40.9206 17.8461C40.7923 17.897 40.6524 17.925 40.506 17.925H30.1067L33.2741 23.4101C33.2849 23.4275 33.2951 23.4452 33.3048 23.4632Z" fill="inherit"/>
<path d="M28.1364 15.675H21.7905L26.9902 6.67059C27.0636 6.54347 27.1094 6.40798 27.1294 6.27108C32.7188 7.25092 37.4207 10.8094 39.9633 15.675H28.1774C28.1638 15.6747 28.1501 15.6747 28.1364 15.675Z" fill="inherit"/>
</svg>
