<svg width="49" height="48" viewBox="0 0 49 48" fill="#85ADD8" xmlns="http://www.w3.org/2000/svg">
<path d="M22.951 9.55356C22.3637 9.1254 21.6364 8.93477 20.9145 9.01982L20.916 9.0183L20.7491 9.04864L20.3393 9.15029C17.7368 9.83014 15.3618 11.1892 13.4576 13.0884C11.5533 14.9876 10.1882 17.3586 9.50206 19.9587C8.81591 22.5587 8.83335 25.2944 9.55262 27.8855C10.2719 30.4766 11.6671 32.83 13.5955 34.7048C15.5238 36.5795 17.9159 37.9082 20.5269 38.5548C23.1378 39.2015 25.8738 39.1427 28.4546 38.3847C31.0353 37.6266 33.3682 36.1965 35.2143 34.2407C37.0603 32.2849 38.3532 29.8738 38.9605 27.2542C38.9867 27.1418 38.9999 27.0267 39 26.9113C39 26.1066 38.6802 25.3348 38.111 24.7658C37.5879 24.2429 36.9808 24.0225 36.3257 23.9335C35.7683 23.8577 35.3184 24.3422 35.2798 24.9033C34.8874 30.6196 30.0107 35.2969 24.1762 35.2969C18.0297 35.2969 13.047 30.3158 13.047 24.1713C13.047 18.3786 17.4754 13.62 23.1325 13.094C23.6807 13.043 24.1273 12.6007 24.1273 12.0501V11.74L24.1197 11.5823L24.0818 11.3289C23.9422 10.6158 23.5383 9.98171 22.951 9.55356Z" fill="inherit"/>
<path d="M35.5335 20.8427C35.0963 20.8427 34.7141 20.5569 34.556 20.1494C33.3871 17.1368 30.9437 14.7597 27.8874 13.6793C27.4639 13.5296 27.1626 13.1399 27.1626 12.6907V10.9889L27.1717 10.8099C27.1793 10.7462 27.1899 10.6885 27.202 10.6339L27.2475 10.4777C27.3057 10.3129 27.392 10.1594 27.5025 10.024L27.6103 9.90268C27.6558 9.8602 27.6983 9.82379 27.7423 9.78889L27.8789 9.69331L28.0124 9.61746L28.1687 9.55222L28.3387 9.50367C28.4482 9.47815 28.5602 9.46492 28.6726 9.46423L28.8577 9.47485L29.0277 9.50519L29.184 9.5507C31.2496 10.2776 33.1333 11.4427 34.7058 12.966C36.2784 14.4894 37.5026 16.3349 38.2943 18.3758L38.4582 18.8219C38.5337 19.0362 38.5601 19.2648 38.5354 19.4907C38.5107 19.7165 38.4355 19.934 38.3155 20.127C38.1954 20.3199 38.0336 20.4835 37.8418 20.6055C37.6501 20.7276 37.4334 20.805 37.2077 20.8321L37.0271 20.8427H35.5335Z" fill="inherit"/>
</svg>
