<svg width="49" height="48" viewBox="0 0 49 48" fill="none" xmlns="http://www.w3.org/2000/svg">
<path d="M21.6054 11.1997C21.5648 10.7952 21.6094 10.3866 21.7364 10.0005C21.8634 9.61426 22.0699 9.25897 22.3426 8.95749C22.6153 8.65601 22.9482 8.41504 23.3198 8.25012C23.6914 8.08521 24.0934 8 24.4999 8C24.9065 8 25.3085 8.08521 25.6801 8.25012C26.0517 8.41504 26.3846 8.65601 26.6573 8.95749C26.93 9.25897 27.1365 9.61426 27.2635 10.0005C27.3905 10.3866 27.4351 10.7952 27.3945 11.1997L26.2658 29.6726C26.2222 30.1107 26.0173 30.5169 25.691 30.8123C25.3647 31.1078 24.9402 31.2714 24.4999 31.2714C24.0597 31.2714 23.6352 31.1078 23.3089 30.8123C22.9826 30.5169 22.7777 30.1107 22.7341 29.6726L21.6054 11.1997ZM21.5908 37.0909C21.5908 36.3193 21.8973 35.5794 22.4429 35.0338C22.9885 34.4882 23.7284 34.1818 24.4999 34.1818C25.2715 34.1818 26.0114 34.4882 26.557 35.0338C27.1026 35.5794 27.4091 36.3193 27.4091 37.0909C27.4091 37.8624 27.1026 38.6024 26.557 39.1479C26.0114 39.6935 25.2715 40 24.4999 40C23.7284 40 22.9885 39.6935 22.4429 39.1479C21.8973 38.6024 21.5908 37.8624 21.5908 37.0909Z" fill="black"/>
</svg>
