<svg width="49" height="48" viewBox="0 0 49 48" fill="#85ADD8" xmlns="http://www.w3.org/2000/svg">
<path d="M9 12.2143C9 11.3618 9.33865 10.5442 9.94144 9.94144C10.5442 9.33865 11.3618 9 12.2143 9H18.6429C19.4953 9 20.3129 9.33865 20.9157 9.94144C21.5185 10.5442 21.8571 11.3618 21.8571 12.2143V18.6429C21.8571 19.4953 21.5185 20.3129 20.9157 20.9157C20.3129 21.5185 19.4953 21.8571 18.6429 21.8571H12.2143C11.3618 21.8571 10.5442 21.5185 9.94144 20.9157C9.33865 20.3129 9 19.4953 9 18.6429V12.2143ZM26.1429 12.2143C26.1429 11.3618 26.4815 10.5442 27.0843 9.94144C27.6871 9.33865 28.5047 9 29.3571 9H35.7857C36.6382 9 37.4558 9.33865 38.0586 9.94144C38.6614 10.5442 39 11.3618 39 12.2143V18.6429C39 19.4953 38.6614 20.3129 38.0586 20.9157C37.4558 21.5185 36.6382 21.8571 35.7857 21.8571H29.3571C28.5047 21.8571 27.6871 21.5185 27.0843 20.9157C26.4815 20.3129 26.1429 19.4953 26.1429 18.6429V12.2143ZM9 29.3571C9 28.5047 9.33865 27.6871 9.94144 27.0843C10.5442 26.4815 11.3618 26.1429 12.2143 26.1429H18.6429C19.4953 26.1429 20.3129 26.4815 20.9157 27.0843C21.5185 27.6871 21.8571 28.5047 21.8571 29.3571V35.7857C21.8571 36.6382 21.5185 37.4558 20.9157 38.0586C20.3129 38.6614 19.4953 39 18.6429 39H12.2143C11.3618 39 10.5442 38.6614 9.94144 38.0586C9.33865 37.4558 9 36.6382 9 35.7857V29.3571ZM26.1429 29.3571C26.1429 28.5047 26.4815 27.6871 27.0843 27.0843C27.6871 26.4815 28.5047 26.1429 29.3571 26.1429H35.7857C36.6382 26.1429 37.4558 26.4815 38.0586 27.0843C38.6614 27.6871 39 28.5047 39 29.3571V35.7857C39 36.6382 38.6614 37.4558 38.0586 38.0586C37.4558 38.6614 36.6382 39 35.7857 39H29.3571C28.5047 39 27.6871 38.6614 27.0843 38.0586C26.4815 37.4558 26.1429 36.6382 26.1429 35.7857V29.3571Z" fill="inherit"/>
</svg>
