<svg width="49" height="48" viewBox="0 0 49 48" fill="none" xmlns="http://www.w3.org/2000/svg">
<path d="M30.5 13.7143C30.5 12.7675 31.2675 12 32.2143 12H40.7857C41.7325 12 42.5 12.7675 42.5 13.7143V22.2857C42.5 23.2325 41.7325 24 40.7857 24C39.8389 24 39.0714 23.2325 39.0714 22.2857V18.1642L26.9113 31.6043C25.6488 32.9998 23.4975 33.1168 22.091 31.8666L16.9138 27.2647L9.48277 35.4389C8.8459 36.1394 7.7617 36.191 7.06114 35.5542C6.36059 34.9173 6.30896 33.8331 6.94583 33.1326L14.3769 24.9584C15.6406 23.5683 17.7876 23.454 19.1917 24.7021L24.3689 29.3041L36.9229 15.4286H32.2143C31.2675 15.4286 30.5 14.6611 30.5 13.7143Z" fill="black"/>
</svg>
