<svg width="48" height="48" viewBox="0 0 48 48" fill="none" xmlns="http://www.w3.org/2000/svg">
<path d="M17.0841 12.8676C18.9178 11.0339 21.4048 10.0038 23.998 10.0038C26.5882 10.0038 29.0725 11.0315 30.9057 12.8613C32.7388 14.6912 33.7711 17.1736 33.7758 19.7638C33.7913 21.1849 33.4875 22.5913 32.8869 23.8793C32.5908 24.4398 32.2582 24.9802 31.8913 25.4971C31.1793 26.4516 30.5825 27.487 30.1136 28.5816C29.7909 29.7402 29.6147 30.9347 29.5891 32.1371H27.8113L20.1847 32.1193H18.4069C18.3813 30.9169 18.2052 29.7224 17.8825 28.5638C17.4135 27.4692 16.8167 26.4339 16.1047 25.4793C15.7392 24.9738 15.4067 24.4453 15.1091 23.8971C14.5085 22.6091 14.2047 21.2027 14.2202 19.7816C14.2202 17.1883 15.2504 14.7013 17.0841 12.8676Z" fill="#FACC15"/>
<path d="M23.998 10.0038C21.4048 10.0038 18.9178 11.0339 17.0841 12.8676C15.2504 14.7013 14.2202 17.1883 14.2202 19.7816C14.2047 21.2027 14.5085 22.6091 15.1091 23.8971C15.4067 24.4453 15.7392 24.9738 16.1047 25.4793C16.8167 26.4339 17.4135 27.4692 17.8825 28.5638C18.2052 29.7224 18.3813 30.9169 18.4069 32.1193H20.1847C20.1574 30.7081 19.9452 29.3065 19.5536 27.9505C19.0405 26.7128 18.3778 25.5426 17.5802 24.466C17.2576 24.0273 16.9608 23.5703 16.6913 23.0971C16.2138 22.0519 15.9768 20.9128 15.998 19.7638C15.998 17.6338 16.8441 15.5911 18.3503 14.0849C19.8564 12.5788 21.8991 11.7327 24.0291 11.7327C26.1591 11.7327 28.2018 12.5788 29.708 14.0849C31.2141 15.5911 32.0602 17.6338 32.0602 19.7638C32.0619 20.9242 31.8005 22.07 31.2958 23.1149C31.0263 23.5881 30.7295 24.0451 30.4069 24.4838C29.6137 25.5553 28.954 26.7194 28.4424 27.9505C28.0493 29.3123 27.8371 30.7199 27.8113 32.1371H29.5891C29.6147 30.9347 29.7909 29.7402 30.1136 28.5816C30.5825 27.487 31.1793 26.4516 31.8913 25.4971C32.2582 24.9802 32.5908 24.4398 32.8869 23.8793C33.4875 22.5913 33.7913 21.1849 33.7758 19.7638C33.7711 17.1736 32.7388 14.6912 30.9057 12.8613C29.0725 11.0315 26.5882 10.0038 23.998 10.0038Z" fill="black"/>
<path d="M24.558 21.7904C24.4247 21.6574 24.2441 21.5828 24.0558 21.5828C23.8675 21.5828 23.6869 21.6574 23.5536 21.7904L20.8869 24.4571L23.4291 27.2393V32.1638H24.8869V26.6704L22.8958 24.4927L24.5758 22.8127C24.6432 22.7452 24.6963 22.6648 24.732 22.5763C24.7678 22.4879 24.7853 22.3932 24.7836 22.2978C24.782 22.2024 24.7612 22.1083 24.7224 22.0212C24.6836 21.934 24.6277 21.8555 24.558 21.7904Z" fill="black"/>
<path d="M29.2069 33.9149H18.7625C18.5739 33.9149 18.393 33.9898 18.2597 34.1232C18.1263 34.2566 18.0514 34.4374 18.0514 34.626C18.0514 34.8146 18.1263 34.9955 18.2597 35.1289C18.393 35.2622 18.5739 35.3371 18.7625 35.3371H29.2069C29.3955 35.3371 29.5764 35.2622 29.7098 35.1289C29.8431 34.9955 29.9181 34.8146 29.9181 34.626C29.9181 34.4374 29.8431 34.2566 29.7098 34.1232C29.5764 33.9898 29.3955 33.9149 29.2069 33.9149Z" fill="black"/>
<path d="M27.5536 36.5815H20.4425C20.2539 36.5815 20.073 36.6565 19.9397 36.7898C19.8063 36.9232 19.7314 37.1041 19.7314 37.2927C19.7314 37.4813 19.8063 37.6621 19.9397 37.7955C20.073 37.9288 20.2539 38.0038 20.4425 38.0038H27.5536C27.7422 38.0038 27.9231 37.9288 28.0564 37.7955C28.1898 37.6621 28.2647 37.4813 28.2647 37.2927C28.2647 37.1041 28.1898 36.9232 28.0564 36.7898C27.9231 36.6565 27.7422 36.5815 27.5536 36.5815Z" fill="black"/>
<path d="M23.3936 17.6838L20.9669 20.1105C20.8444 20.2457 20.7785 20.4229 20.783 20.6054C20.7875 20.7879 20.862 20.9617 20.9911 21.0908C21.1201 21.2198 21.2939 21.2943 21.4764 21.2988C21.6589 21.3033 21.8361 21.2375 21.9714 21.1149L24.398 18.6705C24.4694 18.6058 24.5269 18.5273 24.567 18.4397C24.6072 18.3521 24.6291 18.2573 24.6314 18.161C24.6338 18.0647 24.6166 17.9689 24.5808 17.8795C24.5451 17.79 24.4915 17.7088 24.4234 17.6407C24.3553 17.5725 24.274 17.519 24.1846 17.4832C24.0951 17.4474 23.9994 17.4302 23.903 17.4326C23.8067 17.435 23.7119 17.4569 23.6244 17.497C23.5368 17.5371 23.4583 17.5946 23.3936 17.666V17.6838Z" fill="black"/>
<path d="M7.99802 26.4254L13.5109 24.3662" stroke="black" stroke-width="1.2" stroke-linecap="round"/>
<path d="M6.90996 16.3263L12.7221 17.2487" stroke="black" stroke-width="1.2" stroke-linecap="round"/>
<path d="M12.0399 6.96028L16.5467 10.7444" stroke="black" stroke-width="1.2" stroke-linecap="round"/>
<path d="M23.8869 8.00378L23.8868 2.98005" stroke="black" stroke-width="1.2" stroke-linecap="round"/>
<path d="M39.9076 26.5201L34.3947 24.4609" stroke="black" stroke-width="1.2" stroke-linecap="round"/>
<path d="M40.9957 16.421L35.1835 17.3434" stroke="black" stroke-width="1.2" stroke-linecap="round"/>
<path d="M35.8658 7.05513L31.3589 10.8393" stroke="black" stroke-width="1.2" stroke-linecap="round"/>
</svg>
