<svg width="48" height="48" viewBox="0 0 48 48" fill="#85ADD8" xmlns="http://www.w3.org/2000/svg">
<path d="M29.2089 33.9111H18.7645C18.5759 33.9111 18.395 33.9861 18.2616 34.1194C18.1283 34.2528 18.0533 34.4336 18.0533 34.6222C18.0533 34.8108 18.1283 34.9917 18.2616 35.1251C18.395 35.2584 18.5759 35.3334 18.7645 35.3334H29.2089C29.3975 35.3334 29.5784 35.2584 29.7117 35.1251C29.8451 34.9917 29.92 34.8108 29.92 34.6222C29.92 34.4336 29.8451 34.2528 29.7117 34.1194C29.5784 33.9861 29.3975 33.9111 29.2089 33.9111Z" fill="inherit"/>
<path d="M27.5556 36.5778H20.4444C20.2559 36.5778 20.075 36.6527 19.9416 36.786C19.8083 36.9194 19.7333 37.1003 19.7333 37.2889C19.7333 37.4775 19.8083 37.6583 19.9416 37.7917C20.075 37.9251 20.2559 38 20.4444 38H27.5556C27.7442 38 27.925 37.9251 28.0584 37.7917C28.1918 37.6583 28.2667 37.4775 28.2667 37.2889C28.2667 37.1003 28.1918 36.9194 28.0584 36.786C27.925 36.6527 27.7442 36.5778 27.5556 36.5778Z" fill="inherit"/>
<path fill-rule="evenodd" clip-rule="evenodd" d="M24 10C21.4067 10 18.9197 11.0302 17.086 12.8638C15.2523 14.6975 14.2222 17.1846 14.2222 19.7778C14.2067 21.1989 14.5105 22.6053 15.1111 23.8933C15.4086 24.4415 15.7412 24.97 16.1066 25.4756C16.8187 26.4301 17.4154 27.4654 17.8844 28.56C18.2071 29.7186 18.3833 30.9131 18.4088 32.1156L23.4311 32.16V27.2355L20.8889 24.4533L23.5555 21.7867C23.6888 21.6537 23.8694 21.579 24.0577 21.579C24.246 21.579 24.4267 21.6537 24.56 21.7867C24.6297 21.8518 24.6856 21.9302 24.7243 22.0174C24.7631 22.1045 24.7839 22.1986 24.7856 22.294C24.7873 22.3894 24.7697 22.4841 24.734 22.5726C24.6983 22.661 24.6452 22.7414 24.5777 22.8089L22.8977 24.4889L24.8889 26.6667V32.16L29.5911 32.1333C29.6166 30.9309 29.7928 29.7364 30.1155 28.5778C30.5845 27.4832 31.1812 26.4478 31.8933 25.4933C32.2602 24.9764 32.5927 24.436 32.8888 23.8756C33.4895 22.5875 33.7932 21.1811 33.7777 19.76C33.773 17.1699 32.7408 14.6874 30.9076 12.8576C29.0744 11.0277 26.5901 10 24 10ZM20.9689 20.1067L23.3955 17.68V17.6622C23.4602 17.5908 23.5387 17.5333 23.6263 17.4932C23.7139 17.4531 23.8087 17.4312 23.905 17.4288C24.0013 17.4264 24.0971 17.4437 24.1865 17.4794C24.276 17.5152 24.3572 17.5688 24.4253 17.6369C24.4935 17.705 24.547 17.7862 24.5828 17.8757C24.6186 17.9651 24.6358 18.0609 24.6334 18.1572C24.631 18.2535 24.6091 18.3483 24.569 18.4359C24.5289 18.5235 24.4714 18.602 24.4 18.6667L21.9733 21.1111C21.838 21.2337 21.6608 21.2995 21.4783 21.295C21.2959 21.2905 21.1221 21.2161 20.993 21.087C20.8639 20.9579 20.7894 20.7841 20.7849 20.6016C20.7805 20.4192 20.8463 20.2419 20.9689 20.1067Z" fill="inherit"/>
</svg>
