<svg width="48" height="48" viewBox="0 0 48 48" fill="none" xmlns="http://www.w3.org/2000/svg">
<path fill-rule="evenodd" clip-rule="evenodd" d="M16.8051 13.6283C16.776 13.6573 16.602 13.8314 16.3409 14.1505C16.2631 14.2455 16.188 14.338 16.1161 14.4263C15.9469 14.6345 15.7957 14.8204 15.6736 14.9628C15.6151 15.0315 15.5562 15.102 15.4968 15.1742C14.8792 15.9258 14.2175 16.8684 13.5558 17.9801C12.8305 19.1986 12.4533 20.1559 12.4533 20.9102C12.4533 22.0997 12.8885 23.1151 13.7298 23.9855C14.5712 24.8268 15.6156 25.262 16.8051 25.262C18.0236 25.262 19.039 24.8268 19.8513 23.9855C20.6927 23.1442 21.0988 22.0997 21.0988 20.9102C21.0988 20.1269 20.7507 19.1695 20.0834 17.9801C19.4827 16.9093 18.8351 15.9796 18.1192 15.1486C18.0398 15.0565 17.9596 14.9656 17.8785 14.8758L16.8051 13.6283ZM15.1558 22.583C15.6215 23.0435 16.1547 23.262 16.8051 23.262C17.4886 23.262 17.9823 23.0418 18.4125 22.5963L18.4247 22.5837L18.4371 22.5713C18.8813 22.1271 19.0988 21.6014 19.0988 20.9102C19.0988 20.6594 18.966 20.0761 18.3391 18.9586C17.8629 18.1097 17.3619 17.3732 16.8238 16.7159C16.3384 17.335 15.8116 18.1004 15.2743 19.003C14.5755 20.1772 14.4533 20.7334 14.4533 20.9102C14.4533 21.5418 14.6592 22.0643 15.1558 22.583Z" fill="black"/>
<path fill-rule="evenodd" clip-rule="evenodd" d="M29.2221 22.5059L28.4968 21.8096C28.1197 22.1868 27.8586 22.4189 27.7425 22.5059C26.524 23.6954 25.2765 25.175 23.942 26.9447C23.2457 27.8731 22.6655 28.9175 22.2013 30.02C21.7371 31.1514 21.505 32.1088 21.505 32.9501C21.505 34.8939 22.1432 36.5766 23.5068 37.9402C24.8704 39.3037 26.524 40 28.4968 40C30.4696 40 32.1523 39.3327 33.5159 37.9692C34.8794 36.6056 35.5467 34.952 35.5467 32.9501C35.5467 32.1088 35.3146 31.1514 34.8504 30.049C34.3862 28.9465 33.806 27.9021 33.0517 26.9157C31.6301 25.0589 30.3536 23.5793 29.2221 22.5059ZM31.463 28.1306C30.3542 26.6825 29.3641 25.5071 28.4896 24.598C27.5644 25.575 26.5921 26.7522 25.5405 28.1467C24.957 28.925 24.4564 29.8196 24.0481 30.7876C23.6403 31.7836 23.505 32.4677 23.505 32.9501C23.505 34.4104 23.9645 35.5694 24.921 36.526C25.9106 37.5155 27.056 38 28.4968 38C29.9683 38 31.1332 37.5234 32.1017 36.555C33.0731 35.5836 33.5467 34.4462 33.5467 32.9501C33.5467 32.4664 33.4103 31.7827 33.0071 30.8251C32.6002 29.8586 32.1014 28.9655 31.463 28.1306Z" fill="black"/>
<path fill-rule="evenodd" clip-rule="evenodd" d="M27.4905 9.51839C27.8649 9.03851 28.3066 8.53221 28.816 8L29.5413 8.81233C29.7413 9.04396 29.9337 9.28324 30.1185 9.53292C30.4428 9.97125 30.7436 10.4417 31.0209 10.9592C31.456 11.7425 31.6881 12.4098 31.6881 12.932C31.6881 13.7443 31.398 14.3826 30.8468 14.9338C30.2956 15.456 29.6283 15.7461 28.816 15.7461C27.9746 15.7461 27.2783 15.485 26.7271 14.9338C26.2024 14.4001 25.9104 13.6804 25.9148 12.932C25.9148 12.0114 26.4361 10.8697 27.4905 9.51839ZM27.9147 12.9438C27.9135 13.1609 27.9971 13.3697 28.1476 13.5259C28.2738 13.6499 28.4376 13.7461 28.816 13.7461C29.0829 13.7461 29.2614 13.6744 29.4521 13.4998C29.6375 13.3089 29.6881 13.171 29.6881 12.932L29.6881 12.9362L29.6879 12.9345C29.6865 12.9224 29.6778 12.8449 29.6245 12.6884C29.5604 12.5004 29.4493 12.2487 29.2725 11.9305L29.2651 11.9171L29.2579 11.9036C29.1098 11.6272 28.9538 11.3671 28.7892 11.1194C28.6223 11.3515 28.4805 11.5687 28.3621 11.7708C27.9744 12.4324 27.9148 12.8007 27.9148 12.932L27.9147 12.9438Z" fill="black"/>
</svg>
