<svg width="48" height="48" viewBox="0 0 48 48" fill="#85ADD8" xmlns="http://www.w3.org/2000/svg">
<path fill-rule="evenodd" clip-rule="evenodd" d="M28.816 8C28.3066 8.53221 27.8649 9.03851 27.4905 9.51839C26.4361 10.8697 25.9148 12.0114 25.9148 12.932C25.9104 13.6804 26.2024 14.4001 26.7271 14.9338C27.2783 15.485 27.9746 15.7461 28.816 15.7461C29.6283 15.7461 30.2956 15.456 30.8468 14.9338C31.398 14.3826 31.6881 13.7443 31.6881 12.932C31.6881 12.4098 31.456 11.7425 31.0209 10.9592C30.7436 10.4417 30.4428 9.97125 30.1185 9.53292C29.9337 9.28324 29.7413 9.04396 29.5413 8.81233L28.816 8ZM16.8051 13.6283C16.776 13.6573 16.602 13.8314 16.3409 14.1505C16.2631 14.2455 16.188 14.338 16.1161 14.4263C15.9469 14.6345 15.7957 14.8204 15.6736 14.9628C15.6151 15.0315 15.5562 15.102 15.4968 15.1742C14.8792 15.9258 14.2175 16.8684 13.5558 17.9801C12.8305 19.1986 12.4533 20.1559 12.4533 20.9102C12.4533 22.0997 12.8885 23.1151 13.7298 23.9855C14.5712 24.8268 15.6156 25.262 16.8051 25.262C18.0236 25.262 19.039 24.8268 19.8513 23.9855C20.6927 23.1442 21.0988 22.0997 21.0988 20.9102C21.0988 20.1269 20.7507 19.1695 20.0834 17.9801C19.4827 16.9093 18.8351 15.9796 18.1192 15.1486C18.0398 15.0565 17.9596 14.9656 17.8785 14.8758L16.8051 13.6283ZM29.2221 22.5059L28.4968 21.8096C28.1197 22.1868 27.8586 22.4189 27.7425 22.5059C26.524 23.6954 25.2765 25.175 23.942 26.9447C23.2457 27.8731 22.6655 28.9175 22.2013 30.02C21.7371 31.1514 21.505 32.1088 21.505 32.9501C21.505 34.8939 22.1432 36.5766 23.5068 37.9402C24.8704 39.3037 26.524 40 28.4968 40C30.4696 40 32.1523 39.3327 33.5159 37.9692C34.8794 36.6056 35.5467 34.952 35.5467 32.9501C35.5467 32.1088 35.3146 31.1514 34.8504 30.049C34.3862 28.9465 33.806 27.9021 33.0517 26.9157C31.6301 25.0589 30.3536 23.5793 29.2221 22.5059Z" fill="inherit"/>
</svg>
