<svg width="48" height="48" viewBox="0 0 48 48" fill="none" xmlns="http://www.w3.org/2000/svg">
<path d="M12.4533 20.9102C12.4533 20.1559 12.8305 19.1986 13.5558 17.9801C14.2811 16.7616 15.0063 15.7461 15.6736 14.9628C15.8477 14.7597 16.0798 14.4696 16.3409 14.1505C16.602 13.8314 16.7761 13.6573 16.8051 13.6283L17.8785 14.8758C18.6908 15.7752 19.4161 16.7906 20.0834 17.9801C20.7507 19.1695 21.0988 20.1269 21.0988 20.9102C21.0988 22.0997 20.6927 23.1442 19.8513 23.9855C19.039 24.8268 18.0236 25.262 16.8051 25.262C15.6156 25.262 14.5712 24.8268 13.7298 23.9855C12.8885 23.1151 12.4533 22.0997 12.4533 20.9102ZM21.505 32.9501C21.505 32.1088 21.7371 31.1514 22.2013 30.0199C22.6655 28.9175 23.2457 27.8731 23.942 26.9447C25.2765 25.175 26.524 23.6954 27.7425 22.5059C27.8586 22.4189 28.1197 22.1868 28.4968 21.8096L29.2221 22.5059C30.3536 23.5793 31.6301 25.0589 33.0517 26.9157C33.806 27.9021 34.3862 28.9465 34.8504 30.049C35.3146 31.1514 35.5467 32.1088 35.5467 32.9501C35.5467 34.9519 34.8794 36.6056 33.5159 37.9692C32.1523 39.3327 30.4696 40 28.4968 40C26.524 40 24.8704 39.3037 23.5068 37.9402C22.1432 36.5766 21.505 34.8939 21.505 32.9501ZM25.9148 12.932C25.9148 11.6845 26.8722 10.0308 28.816 8L29.5413 8.81233C30.0925 9.45059 30.5857 10.1469 31.0209 10.9592C31.456 11.7425 31.6881 12.4098 31.6881 12.932C31.6881 13.7443 31.398 14.3826 30.8468 14.9338C30.2956 15.456 29.6283 15.7461 28.816 15.7461C27.9746 15.7461 27.2783 15.485 26.7271 14.9338C26.2024 14.4001 25.9104 13.6804 25.9148 12.932Z" fill="#287ED9"/>
</svg>
