<svg width="49" height="48" viewBox="0 0 49 48" fill="none" xmlns="http://www.w3.org/2000/svg">
<path d="M13.7857 10.3334C13.0026 10.3334 12.2517 10.6445 11.698 11.1981C11.1443 11.7518 10.8333 12.5028 10.8333 13.2858V18.6429H8.16661V13.2858C8.16661 11.7955 8.75862 10.3663 9.81239 9.31253C10.8662 8.25875 12.2954 7.66675 13.7857 7.66675H19.1428V10.3334H13.7857Z" fill="black"/>
<path d="M35.2142 10.3334H29.8571V7.66675H35.2142C36.7045 7.66675 38.1337 8.25875 39.1875 9.31253C40.2413 10.3663 40.8333 11.7955 40.8333 13.2858V18.6429H38.1666V13.2858C38.1666 12.5028 37.8556 11.7518 37.3019 11.1981C36.7482 10.6445 35.9973 10.3334 35.2142 10.3334Z" fill="black"/>
<path d="M36.2857 25.3334H12.7142V22.6667H36.2857V25.3334Z" fill="black"/>
<path d="M13.7857 40.3334C12.2954 40.3334 10.8662 39.7414 9.81239 38.6876C8.75862 37.6339 8.16661 36.2046 8.16661 34.7144V29.3572H10.8333V34.7144C10.8333 35.4974 11.1443 36.2483 11.698 36.802C12.2517 37.3557 13.0026 37.6667 13.7857 37.6667H19.1428V40.3334H13.7857Z" fill="black"/>
<path d="M35.2142 37.6667C35.9973 37.6667 36.7482 37.3557 37.3019 36.802C37.8556 36.2483 38.1666 35.4974 38.1666 34.7144V29.3572H40.8333V34.7144C40.8333 36.2046 40.2413 37.6339 39.1875 38.6876C38.1337 39.7414 36.7045 40.3334 35.2142 40.3334H29.8571V37.6667H35.2142Z" fill="black"/>
</svg>
